<svg aria-hidden="true" style="position:absolute;width:0;height:0" xmlns="http://www.w3.org/2000/svg" overflow="hidden"><defs><symbol id="shuffle" viewBox="0 0 32 32"><path d="M23.812 18.906l3.494 3.496H21.01L7.998 8.541H2.653v1.066h4.884l13.012 13.861h6.758l-3.485 3.486.754.754 4.772-4.774-4.781-4.782z"/><path d="M7.537 22.402H2.653v1.066h5.345l5.163-5.5-.778-.73zM21.011 9.607h6.295l-3.485 3.486.754.754 4.772-4.774-4.781-4.782-.754.754 3.494 3.496h-6.758l-5.185 5.545.779.728z"/></symbol><symbol id="settings" viewBox="0 0 30 32"><path d="M25.6 18.453l4.267-.427v-4l-4.267-.427c-.267-1.28-.8-2.453-1.44-3.467l2.4-3.2-2.453-2.453-3.2 2.4c-1.013-.64-2.187-1.173-3.413-1.44l-.48-4.267h-4l-.48 4.267a10.407 10.407 0 00-3.36 1.387L5.867 4.479 3.414 6.932l2.347 3.307a10.407 10.407 0 00-1.387 3.36l-4.267.48v4l4.267.48c.267 1.227.8 2.4 1.44 3.467l-2.4 3.2 2.453 2.453 3.2-2.4c1.013.64 2.187 1.173 3.413 1.44l.533 4.267h4l.533-4.267a10.407 10.407 0 003.36-1.387l3.253 2.347 2.453-2.453-2.4-3.36c.64-1.067 1.12-2.187 1.387-3.413zm3.2-3.52v2.08l-3.2.32c.053-.427.107-.907.107-1.387s-.053-.907-.107-1.387l3.2.373zM23.947 5.76l1.173 1.173-1.76 2.4a9.727 9.727 0 00-1.813-1.813l2.4-1.76zm-10.08-3.627H16l.373 3.2c-.48-.053-.96-.107-1.387-.107-.48 0-.96.053-1.387.107l.267-3.2zM4.693 6.987L5.92 5.76l2.453 1.707c-.373.267-.693.587-1.013.907s-.64.64-.907 1.013l-1.76-2.4zm-3.626 10.08v-2.133l3.2-.373c-.053.48-.107.96-.107 1.44s.053.96.107 1.387l-3.2-.32zm4.853 9.12l-1.173-1.12 1.76-2.4c.533.64 1.12 1.28 1.76 1.76l-2.347 1.76zM16 29.867h-2.133l-.373-3.2c.48.053.96.107 1.44.107s.96-.053 1.44-.107l-.373 3.2zm-1.067-4.214A9.65 9.65 0 015.28 16c0-2.56 1.013-5.013 2.827-6.827s4.267-2.827 6.827-2.827a9.65 9.65 0 019.653 9.653c0 2.56-1.013 5.013-2.827 6.827s-4.213 2.827-6.827 2.827zm10.24-.64L24 26.186l-2.453-1.76c.373-.267.693-.587 1.013-.907s.587-.64.907-1.013l1.707 2.507z"/></symbol><symbol id="safe" viewBox="0 0 26 32"><path d="M13.113 11.279a4.72 4.72 0 00-4.69 4.196h-1.08v1.049h1.08a4.72 4.72 0 104.69-5.246zm0 8.393a3.675 3.675 0 01-3.63-3.147h3.63v-1.049h-3.63a3.675 3.675 0 013.63-3.147c2.024 0 3.672 1.647 3.672 3.672s-1.647 3.672-3.672 3.672zm-9.966 1.114v-3.147H2.098v4.196h1.049zm0-7.409V10.23H2.098v4.196h1.049z"/><path d="M4.196 7.083v17.834h17.833V7.083H4.196zM20.98 23.868H5.245V8.133H20.98v15.735z"/><path d="M0 3.936v24.128h26.226V3.936H0zm25.177 23.079H1.049V4.986h24.128v22.029z"/></symbol><symbol id="next" viewBox="0 0 32 32"><path d="M1.073 7.47v17.06l14.928-8.531L1.073 7.47zm1.066 1.837l11.712 6.692-11.712 6.693V9.307z"/><path d="M16 7.47v17.06l14.928-8.531L16 7.47zm1.066 1.837l11.712 6.692-11.712 6.693V9.307z"/></symbol><symbol id="mail" viewBox="0 0 32 32"><path d="M28.244 7.47H2.672v17.06h26.656V7.47h-1.084zm-1.067 1.066L16.879 18.834c-.47.47-1.289.47-1.759 0L4.82 8.536h22.356zm-23.439.425l6.923 6.922-6.923 6.923V8.96zm.851 14.503l6.827-6.826 2.951 2.95c.436.436 1.016.677 1.633.677s1.197-.241 1.633-.677l2.951-2.951 6.826 6.826H4.588zm23.673-.657l-6.923-6.924 6.923-6.924v13.848z"/></symbol><symbol id="like" viewBox="0 0 32 32"><path d="M21.886 5.115a6.376 6.376 0 016.376 6.376 6.354 6.354 0 01-1.964 4.6L16.001 26.44 5.517 15.904a6.35 6.35 0 01-1.778-4.413 6.376 6.376 0 0112.262-2.452 6.377 6.377 0 015.886-3.924zm0-1.066A7.424 7.424 0 0016 6.933a7.42 7.42 0 00-5.886-2.884c-4.104 0-7.442 3.339-7.442 7.442 0 1.928.737 3.758 2.075 5.152L16 27.952l11.053-11.108a7.368 7.368 0 002.275-5.352c0-4.104-3.339-7.442-7.442-7.442z"/></symbol><symbol id="global" viewBox="0 0 32 32"><path d="M16 2.672h-.016l-.016.001C8.621 2.69 2.672 8.65 2.672 16c0 7.348 5.949 13.309 13.296 13.327l.016.001H16c7.36 0 13.328-5.968 13.328-13.328S23.36 2.672 16 2.672zm.533 7.976a19.613 19.613 0 004.112-.548c.399 1.571.647 3.382.686 5.367h-4.798v-4.819zm0-1.066V3.823c1.437.398 2.893 2.314 3.821 5.252a18.5 18.5 0 01-3.821.507zM15.467 3.81v5.772a18.455 18.455 0 01-3.852-.515c.936-2.956 2.405-4.879 3.852-5.256zm0 6.837v4.82h-4.831c.039-1.988.287-3.801.687-5.373 1.334.326 2.72.515 4.144.553zm-5.904 4.82H3.752a12.209 12.209 0 012.773-7.241 19.545 19.545 0 003.766 1.589c-.431 1.7-.689 3.617-.728 5.652zm0 1.066c.039 2.034.297 3.951.728 5.651a19.638 19.638 0 00-3.766 1.59 12.196 12.196 0 01-2.773-7.241h5.811zm1.073 0h4.831v4.814a19.6 19.6 0 00-4.145.555c-.399-1.571-.647-3.383-.686-5.369zm4.831 5.879v5.778c-1.448-.378-2.919-2.303-3.854-5.263a18.465 18.465 0 013.854-.515zm1.066 5.766v-5.765a18.57 18.57 0 013.822.508c-.928 2.941-2.384 4.86-3.822 5.257zm0-6.831v-4.814h4.798c-.039 1.983-.286 3.791-.684 5.361-1.325-.323-2.7-.51-4.113-.548zm5.871-4.814h5.845a12.2 12.2 0 01-2.773 7.24 19.73 19.73 0 00-3.797-1.599c.43-1.698.687-3.611.726-5.64zm0-1.066c-.039-2.033-.297-3.946-.727-5.646 1.33-.402 2.599-.94 3.795-1.598a12.203 12.203 0 012.776 7.244h-5.845zm2.334-8.058a18.627 18.627 0 01-3.35 1.385c-.623-2.005-1.498-3.642-2.533-4.717a12.269 12.269 0 015.883 3.332zM13.103 4.087c-1.029 1.073-1.9 2.702-2.521 4.697a18.572 18.572 0 01-3.319-1.375 12.258 12.258 0 015.84-3.322zm-5.844 20.5a18.534 18.534 0 013.322-1.377c.621 1.997 1.492 3.629 2.522 4.702a12.257 12.257 0 01-5.844-3.326zm11.596 3.335c1.036-1.075 1.911-2.712 2.535-4.721a18.5 18.5 0 013.351 1.387 12.248 12.248 0 01-5.886 3.334z"/></symbol><symbol id="compass" viewBox="0 0 32 32"><path d="M17.992 5.493c.414-.47.674-1.08.674-1.755 0-1.472-1.193-2.665-2.666-2.665s-2.666 1.193-2.666 2.665c0 .675.259 1.285.674 1.755-6.12.957-10.803 6.251-10.803 12.64C3.205 25.2 8.934 30.928 16 30.928S28.795 25.2 28.795 18.133c0-6.389-4.683-11.683-10.803-12.64zM16 2.139c.882 0 1.599.717 1.599 1.599S16.882 5.337 16 5.337s-1.599-.717-1.599-1.599.717-1.599 1.599-1.599zm0 27.722c-6.467 0-11.729-5.261-11.729-11.729S9.532 6.403 16 6.403s11.729 5.261 11.729 11.729S22.468 29.861 16 29.861z"/><path d="M9.605 24.538l8.675-4.109 4.109-8.676-8.704 4.081-4.081 8.703zm4.642-7.388l2.721 2.721-5.138 2.433 2.417-5.155zm3.475 1.968l-2.721-2.721 5.155-2.417-2.434 5.139z"/></symbol><symbol id="clock" viewBox="0 0 32 32"><path d="M16 3.205C8.934 3.205 3.205 8.934 3.205 16S8.934 28.795 16 28.795 28.795 23.066 28.795 16 23.066 3.205 16 3.205zm0 24.524C9.533 27.729 4.271 22.468 4.271 16S9.532 4.271 16 4.271 27.729 9.532 27.729 16c0 6.467-5.261 11.729-11.729 11.729z"/><path d="M16 17.066H9.602v1.066h7.464V7.513H16z"/></symbol><symbol id="cart" viewBox="0 0 32 32"><path d="M30.622 9.602H8.215L6.406 2.138H1.379v1.066h4.188l5.198 21.443a2.656 2.656 0 00-1.923 2.547 2.666 2.666 0 105.332 0c0-.603-.208-1.153-.545-1.599h7.487a2.644 2.644 0 00-.545 1.599 2.666 2.666 0 102.665-2.666H11.833l-.517-2.133h14.968L30.621 9.6zM13.107 27.196c0 .882-.717 1.599-1.599 1.599s-1.599-.717-1.599-1.599.717-1.599 1.599-1.599 1.599.718 1.599 1.599zm11.729 0a1.6 1.6 0 01-3.199 0 1.6 1.6 0 013.199 0zm-13.778-5.865L8.473 10.669h20.662L25.52 21.331H11.058z"/></symbol><symbol id="call" viewBox="0 0 32 32"><path d="M23.407 30.394c-2.431 0-8.341-3.109-13.303-9.783C5.463 14.369 3.206 9.86 3.206 6.826c0-2.389 1.65-3.529 2.536-4.142l.219-.153c.979-.7 2.502-.927 3.086-.927 1.024 0 1.455.599 1.716 1.121.222.442 2.061 4.39 2.247 4.881.286.755.192 1.855-.692 2.488l-.155.108c-.439.304-1.255.869-1.368 1.557-.055.334.057.684.342 1.068 1.423 1.918 5.968 7.55 6.787 8.314.642.6 1.455.685 2.009.218.573-.483.828-.768.83-.772l.059-.057c.048-.041.496-.396 1.228-.396.528 0 1.065.182 1.596.541 1.378.931 4.487 3.011 4.487 3.011l.05.038c.398.341.973 1.323.302 2.601-.695 1.327-2.85 4.066-5.079 4.066zM9.046 2.672c-.505 0-1.746.213-2.466.728l-.232.162c-.827.572-2.076 1.435-2.076 3.265 0 2.797 2.188 7.098 6.687 13.149 4.914 6.609 10.532 9.353 12.447 9.353 1.629 0 3.497-2.276 4.135-3.494.392-.748.071-1.17-.04-1.284-.36-.241-3.164-2.117-4.453-2.988-.351-.238-.688-.358-.999-.358-.283 0-.469.1-.532.14-.104.111-.39.405-.899.833-.951.801-2.398.704-3.424-.254-.923-.862-5.585-6.666-6.916-8.459-.46-.62-.641-1.252-.538-1.877.187-1.133 1.245-1.866 1.813-2.26l.142-.099c.508-.363.4-1.02.316-1.242-.157-.414-1.973-4.322-2.203-4.781-.188-.376-.336-.533-.764-.533z"/></symbol></defs></svg>